TITLE ""
FILE "LR_black_phrase_C10.mp3" MP3
  TRACK 01 AUDIO
    TITLE "LR_black_phrase_C10_001"
    INDEX 01 00:00:00
  TRACK 02 AUDIO
    TITLE "LR_black_phrase_C10_002"
    INDEX 01 00:00:14
  TRACK 03 AUDIO
    TITLE "LR_black_phrase_C10_003"
    INDEX 01 00:01:41
  TRACK 04 AUDIO
    TITLE "LR_black_phrase_C10_004"
    INDEX 01 00:02:05
  TRACK 05 AUDIO
    TITLE "LR_black_phrase_C10_005"
    INDEX 01 00:03:36
  TRACK 06 AUDIO
    TITLE "LR_black_phrase_C10_006"
    INDEX 01 00:04:34
  TRACK 07 AUDIO
    TITLE "LR_black_phrase_C10_007"
    INDEX 01 00:06:34
  TRACK 08 AUDIO
    TITLE "LR_black_phrase_C10_008"
    INDEX 01 00:07:01
  TRACK 09 AUDIO
    TITLE "LR_black_phrase_C10_009"
    INDEX 01 00:08:73
  TRACK 10 AUDIO
    TITLE "LR_black_phrase_C10_010"
    INDEX 01 00:09:27
  TRACK 11 AUDIO
    TITLE "LR_black_phrase_C10_011"
    INDEX 01 00:11:26
  TRACK 12 AUDIO
    TITLE "LR_black_phrase_C10_012"
    INDEX 01 00:12:29
  TRACK 13 AUDIO
    TITLE "LR_black_phrase_C10_013"
    INDEX 01 00:13:42
  TRACK 14 AUDIO
    TITLE "LR_black_phrase_C10_014"
    INDEX 01 00:14:07
  TRACK 15 AUDIO
    TITLE "LR_black_phrase_C10_015"
    INDEX 01 00:16:54
  TRACK 16 AUDIO
    TITLE "LR_black_phrase_C10_016"
    INDEX 01 00:17:54
  TRACK 17 AUDIO
    TITLE "LR_black_phrase_C10_017"
    INDEX 01 00:19:47
  TRACK 18 AUDIO
    TITLE "LR_black_phrase_C10_018"
    INDEX 01 00:20:11
  TRACK 19 AUDIO
    TITLE "LR_black_phrase_C10_019"
    INDEX 01 00:22:02
  TRACK 20 AUDIO
    TITLE "LR_black_phrase_C10_020"
    INDEX 01 00:22:31
  TRACK 21 AUDIO
    TITLE "LR_black_phrase_C10_021"
    INDEX 01 00:24:23
  TRACK 22 AUDIO
    TITLE "LR_black_phrase_C10_022"
    INDEX 01 00:25:28
  TRACK 23 AUDIO
    TITLE "LR_black_phrase_C10_023"
    INDEX 01 00:26:53
  TRACK 24 AUDIO
    TITLE "LR_black_phrase_C10_024"
    INDEX 01 00:27:13
  TRACK 25 AUDIO
    TITLE "LR_black_phrase_C10_025"
    INDEX 01 00:28:71
  TRACK 26 AUDIO
    TITLE "LR_black_phrase_C10_026"
    INDEX 01 00:29:73
  TRACK 27 AUDIO
    TITLE "LR_black_phrase_C10_027"
    INDEX 01 00:31:64
  TRACK 28 AUDIO
    TITLE "LR_black_phrase_C10_028"
    INDEX 01 00:32:22
  TRACK 29 AUDIO
    TITLE "LR_black_phrase_C10_029"
    INDEX 01 00:34:43
  TRACK 30 AUDIO
    TITLE "LR_black_phrase_C10_030"
    INDEX 01 00:34:62
  TRACK 31 AUDIO
    TITLE "LR_black_phrase_C10_031"
    INDEX 01 00:37:08
  TRACK 32 AUDIO
    TITLE "LR_black_phrase_C10_032"
    INDEX 01 00:38:03
  TRACK 33 AUDIO
    TITLE "LR_black_phrase_C10_033"
    INDEX 01 00:39:22
  TRACK 34 AUDIO
    TITLE "LR_black_phrase_C10_034"
    INDEX 01 00:39:59
  TRACK 35 AUDIO
    TITLE "LR_black_phrase_C10_035"
    INDEX 01 00:42:44
  TRACK 36 AUDIO
    TITLE "LR_black_phrase_C10_036"
    INDEX 01 00:43:53
  TRACK 37 AUDIO
    TITLE "LR_black_phrase_C10_037"
    INDEX 01 00:45:50
  TRACK 38 AUDIO
    TITLE "LR_black_phrase_C10_038"
    INDEX 01 00:46:10
  TRACK 39 AUDIO
    TITLE "LR_black_phrase_C10_039"
    INDEX 01 00:48:21
  TRACK 40 AUDIO
    TITLE "LR_black_phrase_C10_040"
    INDEX 01 00:48:47
  TRACK 41 AUDIO
    TITLE "LR_black_phrase_C10_041"
    INDEX 01 00:50:59
  TRACK 42 AUDIO
    TITLE "LR_black_phrase_C10_042"
    INDEX 01 00:51:64
  TRACK 43 AUDIO
    TITLE "LR_black_phrase_C10_043"
    INDEX 01 00:53:12
  TRACK 44 AUDIO
    TITLE "LR_black_phrase_C10_044"
    INDEX 01 00:53:52
  TRACK 45 AUDIO
    TITLE "LR_black_phrase_C10_045"
    INDEX 01 00:55:41
  TRACK 46 AUDIO
    TITLE "LR_black_phrase_C10_046"
    INDEX 01 00:56:40
  TRACK 47 AUDIO
    TITLE "LR_black_phrase_C10_047"
    INDEX 01 00:58:72
  TRACK 48 AUDIO
    TITLE "LR_black_phrase_C10_048"
    INDEX 01 00:59:37
  TRACK 49 AUDIO
    TITLE "LR_black_phrase_C10_049"
    INDEX 01 01:01:45
  TRACK 50 AUDIO
    TITLE "LR_black_phrase_C10_050"
    INDEX 01 01:02:02
  TRACK 51 AUDIO
    TITLE "LR_black_phrase_C10_051"
    INDEX 01 01:04:10
  TRACK 52 AUDIO
    TITLE "LR_black_phrase_C10_052"
    INDEX 01 01:05:14
  TRACK 53 AUDIO
    TITLE "LR_black_phrase_C10_053"
    INDEX 01 01:06:19
  TRACK 54 AUDIO
    TITLE "LR_black_phrase_C10_054"
    INDEX 01 01:06:58
  TRACK 55 AUDIO
    TITLE "LR_black_phrase_C10_055"
    INDEX 01 01:09:21
  TRACK 56 AUDIO
    TITLE "LR_black_phrase_C10_056"
    INDEX 01 01:10:19
  TRACK 57 AUDIO
    TITLE "LR_black_phrase_C10_057"
    INDEX 01 01:12:35
  TRACK 58 AUDIO
    TITLE "LR_black_phrase_C10_058"
    INDEX 01 01:12:74
  TRACK 59 AUDIO
    TITLE "LR_black_phrase_C10_059"
    INDEX 01 01:14:67
  TRACK 60 AUDIO
    TITLE "LR_black_phrase_C10_060"
    INDEX 01 01:15:22
  TRACK 61 AUDIO
    TITLE "LR_black_phrase_C10_061"
    INDEX 01 01:17:15
  TRACK 62 AUDIO
    TITLE "LR_black_phrase_C10_062"
    INDEX 01 01:18:16
  TRACK 63 AUDIO
    TITLE "LR_black_phrase_C10_063"
    INDEX 01 01:19:31
  TRACK 64 AUDIO
    TITLE "LR_black_phrase_C10_064"
    INDEX 01 01:20:00
  TRACK 65 AUDIO
    TITLE "LR_black_phrase_C10_065"
    INDEX 01 01:22:18
  TRACK 66 AUDIO
    TITLE "LR_black_phrase_C10_066"
    INDEX 01 01:23:17
  TRACK 67 AUDIO
    TITLE "LR_black_phrase_C10_067"
    INDEX 01 01:25:40
  TRACK 68 AUDIO
    TITLE "LR_black_phrase_C10_068"
    INDEX 01 01:25:73
  TRACK 69 AUDIO
    TITLE "LR_black_phrase_C10_069"
    INDEX 01 01:28:19
  TRACK 70 AUDIO
    TITLE "LR_black_phrase_C10_070"
    INDEX 01 01:28:38
  TRACK 71 AUDIO
    TITLE "LR_black_phrase_C10_071"
    INDEX 01 01:30:59
  TRACK 72 AUDIO
    TITLE "LR_black_phrase_C10_072"
    INDEX 01 01:31:52
  TRACK 73 AUDIO
    TITLE "LR_black_phrase_C10_073"
    INDEX 01 01:32:58
  TRACK 74 AUDIO
    TITLE "LR_black_phrase_C10_074"
    INDEX 01 01:33:18
  TRACK 75 AUDIO
    TITLE "LR_black_phrase_C10_075"
    INDEX 01 01:36:01
  TRACK 76 AUDIO
    TITLE "LR_black_phrase_C10_076"
    INDEX 01 01:36:71
  TRACK 77 AUDIO
    TITLE "LR_black_phrase_C10_077"
    INDEX 01 01:38:72
  TRACK 78 AUDIO
    TITLE "LR_black_phrase_C10_078"
    INDEX 01 01:39:32
  TRACK 79 AUDIO
    TITLE "LR_black_phrase_C10_079"
    INDEX 01 01:41:21
  TRACK 80 AUDIO
    TITLE "LR_black_phrase_C10_080"
    INDEX 01 01:41:45
  TRACK 81 AUDIO
    TITLE "LR_black_phrase_C10_081"
    INDEX 01 01:43:32
  TRACK 82 AUDIO
    TITLE "LR_black_phrase_C10_082"
    INDEX 01 01:44:37
  TRACK 83 AUDIO
    TITLE "LR_black_phrase_C10_083"
    INDEX 01 01:45:39
  TRACK 84 AUDIO
    TITLE "LR_black_phrase_C10_084"
    INDEX 01 01:46:03
  TRACK 85 AUDIO
    TITLE "LR_black_phrase_C10_085"
    INDEX 01 01:48:37
  TRACK 86 AUDIO
    TITLE "LR_black_phrase_C10_086"
    INDEX 01 01:49:36
  TRACK 87 AUDIO
    TITLE "LR_black_phrase_C10_087"
    INDEX 01 01:51:04
  TRACK 88 AUDIO
    TITLE "LR_black_phrase_C10_088"
    INDEX 01 01:51:47
  TRACK 89 AUDIO
    TITLE "LR_black_phrase_C10_089"
    INDEX 01 01:53:11
  TRACK 90 AUDIO
    TITLE "LR_black_phrase_C10_090"
    INDEX 01 01:53:42
  TRACK 91 AUDIO
    TITLE "LR_black_phrase_C10_091"
    INDEX 01 01:55:06
  TRACK 92 AUDIO
    TITLE "LR_black_phrase_C10_092"
    INDEX 01 01:56:09
  TRACK 93 AUDIO
    TITLE "LR_black_phrase_C10_093"
    INDEX 01 01:57:28
  TRACK 94 AUDIO
    TITLE "LR_black_phrase_C10_094"
    INDEX 01 01:57:67
  TRACK 95 AUDIO
    TITLE "LR_black_phrase_C10_095"
    INDEX 01 02:00:30
  TRACK 96 AUDIO
    TITLE "LR_black_phrase_C10_096"
    INDEX 01 02:01:30
  TRACK 97 AUDIO
    TITLE "LR_black_phrase_C10_097"
    INDEX 01 02:03:48
  TRACK 98 AUDIO
    TITLE "LR_black_phrase_C10_098"
    INDEX 01 02:04:12
  TRACK 99 AUDIO
    TITLE "LR_black_phrase_C10_099"
    INDEX 01 02:06:49
  TRACK 100 AUDIO
    TITLE "LR_black_phrase_C10_100"
    INDEX 01 02:07:03
  TRACK 101 AUDIO
    TITLE "LR_black_phrase_C10_101"
    INDEX 01 02:09:39
  TRACK 102 AUDIO
    TITLE "LR_black_phrase_C10_102"
    INDEX 01 02:10:39
  TRACK 103 AUDIO
    TITLE "LR_black_phrase_C10_103"
    INDEX 01 02:11:52
  TRACK 104 AUDIO
    TITLE "LR_black_phrase_C10_104"
    INDEX 01 02:12:12
  TRACK 105 AUDIO
    TITLE "LR_black_phrase_C10_105"
    INDEX 01 02:14:60
  TRACK 106 AUDIO
    TITLE "LR_black_phrase_C10_106"
    INDEX 01 02:15:59
  TRACK 107 AUDIO
    TITLE "LR_black_phrase_C10_107"
    INDEX 01 02:18:01
  TRACK 108 AUDIO
    TITLE "LR_black_phrase_C10_108"
    INDEX 01 02:18:36
  TRACK 109 AUDIO
    TITLE "LR_black_phrase_C10_109"
    INDEX 01 02:21:13
  TRACK 110 AUDIO
    TITLE "LR_black_phrase_C10_110"
    INDEX 01 02:21:46
  TRACK 111 AUDIO
    TITLE "LR_black_phrase_C10_111"
    INDEX 01 02:24:31
  TRACK 112 AUDIO
    TITLE "LR_black_phrase_C10_112"
    INDEX 01 02:25:26
  TRACK 113 AUDIO
    TITLE "LR_black_phrase_C10_113"
    INDEX 01 02:26:40
  TRACK 114 AUDIO
    TITLE "LR_black_phrase_C10_114"
    INDEX 01 02:27:00
  TRACK 115 AUDIO
    TITLE "LR_black_phrase_C10_115"
    INDEX 01 02:28:17
  TRACK 116 AUDIO
    TITLE "LR_black_phrase_C10_116"
    INDEX 01 02:29:16
  TRACK 117 AUDIO
    TITLE "LR_black_phrase_C10_117"
    INDEX 01 02:31:49
  TRACK 118 AUDIO
    TITLE "LR_black_phrase_C10_118"
    INDEX 01 02:32:07
  TRACK 119 AUDIO
    TITLE "LR_black_phrase_C10_119"
    INDEX 01 02:34:35
  TRACK 120 AUDIO
    TITLE "LR_black_phrase_C10_120"
    INDEX 01 02:34:61
  TRACK 121 AUDIO
    TITLE "LR_black_phrase_C10_121"
    INDEX 01 02:37:06
  TRACK 122 AUDIO
    TITLE "LR_black_phrase_C10_122"
    INDEX 01 02:38:17
  TRACK 123 AUDIO
    TITLE "LR_black_phrase_C10_123"
    INDEX 01 02:39:44
  TRACK 124 AUDIO
    TITLE "LR_black_phrase_C10_124"
    INDEX 01 02:40:06
  TRACK 125 AUDIO
    TITLE "LR_black_phrase_C10_125"
    INDEX 01 02:42:48
  TRACK 126 AUDIO
    TITLE "LR_black_phrase_C10_126"
    INDEX 01 02:43:52
  TRACK 127 AUDIO
    TITLE "LR_black_phrase_C10_127"
    INDEX 01 02:45:57
  TRACK 128 AUDIO
    TITLE "LR_black_phrase_C10_128"
    INDEX 01 02:46:19
  TRACK 129 AUDIO
    TITLE "LR_black_phrase_C10_129"
    INDEX 01 02:48:12
  TRACK 130 AUDIO
    TITLE "LR_black_phrase_C10_130"
    INDEX 01 02:48:39
  TRACK 131 AUDIO
    TITLE "LR_black_phrase_C10_131"
    INDEX 01 02:50:32
  TRACK 132 AUDIO
    TITLE "LR_black_phrase_C10_132"
    INDEX 01 02:51:34
  TRACK 133 AUDIO
    TITLE "LR_black_phrase_C10_133"
    INDEX 01 02:52:41
  TRACK 134 AUDIO
    TITLE "LR_black_phrase_C10_134"
    INDEX 01 02:53:07
  TRACK 135 AUDIO
    TITLE "LR_black_phrase_C10_135"
    INDEX 01 02:54:22
  TRACK 136 AUDIO
    TITLE "LR_black_phrase_C10_136"
    INDEX 01 02:55:20
  TRACK 137 AUDIO
    TITLE "LR_black_phrase_C10_137"
    INDEX 01 02:57:21
  TRACK 138 AUDIO
    TITLE "LR_black_phrase_C10_138"
    INDEX 01 02:57:58
  TRACK 139 AUDIO
    TITLE "LR_black_phrase_C10_139"
    INDEX 01 03:00:56
  TRACK 140 AUDIO
    TITLE "LR_black_phrase_C10_140"
    INDEX 01 03:01:09
  TRACK 141 AUDIO
    TITLE "LR_black_phrase_C10_141"
    INDEX 01 03:04:09
  TRACK 142 AUDIO
    TITLE "LR_black_phrase_C10_142"
    INDEX 01 03:05:06
  TRACK 143 AUDIO
    TITLE "LR_black_phrase_C10_143"
    INDEX 01 03:06:29
  TRACK 144 AUDIO
    TITLE "LR_black_phrase_C10_144"
    INDEX 01 03:06:66
  TRACK 145 AUDIO
    TITLE "LR_black_phrase_C10_145"
    INDEX 01 03:10:09
  TRACK 146 AUDIO
    TITLE "LR_black_phrase_C10_146"
    INDEX 01 03:11:11
  TRACK 147 AUDIO
    TITLE "LR_black_phrase_C10_147"
    INDEX 01 03:12:69
  TRACK 148 AUDIO
    TITLE "LR_black_phrase_C10_148"
    INDEX 01 03:13:29
  TRACK 149 AUDIO
    TITLE "LR_black_phrase_C10_149"
    INDEX 01 03:15:48
  TRACK 150 AUDIO
    TITLE "LR_black_phrase_C10_150"
    INDEX 01 03:15:71
  TRACK 151 AUDIO
    TITLE "LR_black_phrase_C10_151"
    INDEX 01 03:18:13
  TRACK 152 AUDIO
    TITLE "LR_black_phrase_C10_152"
    INDEX 01 03:19:10
  TRACK 153 AUDIO
    TITLE "LR_black_phrase_C10_153"
    INDEX 01 03:20:16
  TRACK 154 AUDIO
    TITLE "LR_black_phrase_C10_154"
    INDEX 01 03:20:49
  TRACK 155 AUDIO
    TITLE "LR_black_phrase_C10_155"
    INDEX 01 03:24:15
  TRACK 156 AUDIO
    TITLE "LR_black_phrase_C10_156"
    INDEX 01 03:25:15
  TRACK 157 AUDIO
    TITLE "LR_black_phrase_C10_157"
    INDEX 01 03:27:12
  TRACK 158 AUDIO
    TITLE "LR_black_phrase_C10_158"
    INDEX 01 03:27:45
  TRACK 159 AUDIO
    TITLE "LR_black_phrase_C10_159"
    INDEX 01 03:29:54
  TRACK 160 AUDIO
    TITLE "LR_black_phrase_C10_160"
    INDEX 01 03:30:02
  TRACK 161 AUDIO
    TITLE "LR_black_phrase_C10_161"
    INDEX 01 03:32:11
  TRACK 162 AUDIO
    TITLE "LR_black_phrase_C10_162"
    INDEX 01 03:33:14
  TRACK 163 AUDIO
    TITLE "LR_black_phrase_C10_163"
    INDEX 01 03:34:33
  TRACK 164 AUDIO
    TITLE "LR_black_phrase_C10_164"
    INDEX 01 03:34:73
  TRACK 165 AUDIO
    TITLE "LR_black_phrase_C10_165"
    INDEX 01 03:36:09
  TRACK 166 AUDIO
    TITLE "LR_black_phrase_C10_166"
    INDEX 01 03:37:06
  TRACK 167 AUDIO
    TITLE "LR_black_phrase_C10_167"
    INDEX 01 03:38:70
  TRACK 168 AUDIO
    TITLE "LR_black_phrase_C10_168"
    INDEX 01 03:39:37
  TRACK 169 AUDIO
    TITLE "LR_black_phrase_C10_169"
    INDEX 01 03:41:33
  TRACK 170 AUDIO
    TITLE "LR_black_phrase_C10_170"
    INDEX 01 03:41:59
  TRACK 171 AUDIO
    TITLE "LR_black_phrase_C10_171"
    INDEX 01 03:43:54
  TRACK 172 AUDIO
    TITLE "LR_black_phrase_C10_172"
    INDEX 01 03:44:57
  TRACK 173 AUDIO
    TITLE "LR_black_phrase_C10_173"
    INDEX 01 03:45:59
  TRACK 174 AUDIO
    TITLE "LR_black_phrase_C10_174"
    INDEX 01 03:46:25
  TRACK 175 AUDIO
    TITLE "LR_black_phrase_C10_175"
    INDEX 01 03:48:43
  TRACK 176 AUDIO
    TITLE "LR_black_phrase_C10_176"
    INDEX 01 03:49:45
  TRACK 177 AUDIO
    TITLE "LR_black_phrase_C10_177"
    INDEX 01 03:52:18
  TRACK 178 AUDIO
    TITLE "LR_black_phrase_C10_178"
    INDEX 01 03:52:57
  TRACK 179 AUDIO
    TITLE "LR_black_phrase_C10_179"
    INDEX 01 03:55:26
  TRACK 180 AUDIO
    TITLE "LR_black_phrase_C10_180"
    INDEX 01 03:55:55
  TRACK 181 AUDIO
    TITLE "LR_black_phrase_C10_181"
    INDEX 01 03:58:24
  TRACK 182 AUDIO
    TITLE "LR_black_phrase_C10_182"
    INDEX 01 03:59:22
  TRACK 183 AUDIO
    TITLE "LR_black_phrase_C10_183"
    INDEX 01 04:00:41
  TRACK 184 AUDIO
    TITLE "LR_black_phrase_C10_184"
    INDEX 01 04:01:05
  TRACK 185 AUDIO
    TITLE "LR_black_phrase_C10_185"
    INDEX 01 04:03:51
  TRACK 186 AUDIO
    TITLE "LR_black_phrase_C10_186"
    INDEX 01 04:04:52
  TRACK 187 AUDIO
    TITLE "LR_black_phrase_C10_187"
    INDEX 01 04:06:35
  TRACK 188 AUDIO
    TITLE "LR_black_phrase_C10_188"
    INDEX 01 04:06:69
  TRACK 189 AUDIO
    TITLE "LR_black_phrase_C10_189"
    INDEX 01 04:08:68
  TRACK 190 AUDIO
    TITLE "LR_black_phrase_C10_190"
    INDEX 01 04:09:16
  TRACK 191 AUDIO
    TITLE "LR_black_phrase_C10_191"
    INDEX 01 04:11:13
  TRACK 192 AUDIO
    TITLE "LR_black_phrase_C10_192"
    INDEX 01 04:12:12
  TRACK 193 AUDIO
    TITLE "LR_black_phrase_C10_193"
    INDEX 01 04:13:35
  TRACK 194 AUDIO
    TITLE "LR_black_phrase_C10_194"
    INDEX 01 04:13:71
  TRACK 195 AUDIO
    TITLE "LR_black_phrase_C10_195"
    INDEX 01 04:16:01
  TRACK 196 AUDIO
    TITLE "LR_black_phrase_C10_196"
    INDEX 01 04:17:00
  TRACK 197 AUDIO
    TITLE "LR_black_phrase_C10_197"
    INDEX 01 04:19:11
  TRACK 198 AUDIO
    TITLE "LR_black_phrase_C10_198"
    INDEX 01 04:19:46
  TRACK 199 AUDIO
    TITLE "LR_black_phrase_C10_199"
    INDEX 01 04:22:01
  TRACK 200 AUDIO
    TITLE "LR_black_phrase_C10_200"
    INDEX 01 04:22:29
  TRACK 201 AUDIO
    TITLE "LR_black_phrase_C10_201"
    INDEX 01 04:24:59
